<svg width="27" height="27" fill="none" xmlns="http://www.w3.org/2000/svg"><path d="M4.96 0h17.08c.652 0 1.297.133 1.898.393a4.966 4.966 0 011.61 1.117c.46.48.825 1.048 1.075 1.673.249.626.377 1.296.377 1.974v16.686c0 .678-.128 1.348-.378 1.974a5.177 5.177 0 01-1.075 1.673 4.954 4.954 0 01-1.609 1.118A4.797 4.797 0 0122.04 27H4.96a4.866 4.866 0 01-3.507-1.51A5.263 5.263 0 010 21.843V5.157c0-1.368.523-2.68 1.453-3.647A4.865 4.865 0 014.96 0z" fill="#3B5998"/><path d="M10.216 13.974h1.518v6.508c0 .063.024.123.067.168.043.044.1.07.161.07h2.58a.221.221 0 00.16-.07.238.238 0 00.067-.168v-6.477h1.746a.233.233 0 00.15-.06.25.25 0 00.078-.146l.258-2.403a.257.257 0 00-.05-.186.253.253 0 00-.168-.072h-1.984V9.633c0-.454.228-.681.694-.681h1.32a.224.224 0 00.128-.06.24.24 0 00.07-.126V6.518a.242.242 0 00-.067-.168.224.224 0 00-.161-.07h-1.895a3.407 3.407 0 00-2.281.888 2.49 2.49 0 00-.664 1c-.139.384-.183.8-.13 1.207v1.763h-1.597a.223.223 0 00-.157.066.242.242 0 00-.07.161v2.372c0 .063.023.123.066.168.043.044.1.07.161.07z" fill="#fff"/></svg>