<svg width="27" height="27" fill="none" xmlns="http://www.w3.org/2000/svg"><rect width="27" height="27" rx="6" fill="url(#paint0_linear_1_82)"/><path d="M13.5 8a5.5 5.5 0 100 11 5.5 5.5 0 000-11zm0 9.072a3.573 3.573 0 110-7.146 3.573 3.573 0 010 7.146zM19 9a1 1 0 100-2 1 1 0 000 2z" fill="#fff"/><path d="M23.444 6.616a5.36 5.36 0 00-3.07-3.064 7.714 7.714 0 00-2.55-.49C16.701 3.015 16.345 3 13.498 3c-2.848 0-3.213 0-4.327.063a7.653 7.653 0 00-2.547.489 5.365 5.365 0 00-3.07 3.064 7.657 7.657 0 00-.489 2.546c-.05 1.12-.065 1.475-.065 4.32 0 2.843 0 3.205.065 4.32.018.87.182 1.73.489 2.546a5.367 5.367 0 003.072 3.064 7.689 7.689 0 002.548.524c1.123.049 1.478.064 4.326.064s3.213 0 4.326-.064a7.725 7.725 0 002.55-.488 5.38 5.38 0 003.07-3.066 7.656 7.656 0 00.489-2.545c.05-1.12.065-1.475.065-4.32 0-2.844 0-3.205-.065-4.32a7.652 7.652 0 00-.491-2.58zm-1.42 11.099a5.863 5.863 0 01-.363 1.965 3.477 3.477 0 01-1.997 1.992 5.824 5.824 0 01-1.947.363c-1.108.05-1.42.064-4.261.064-2.843 0-3.134 0-4.263-.064a5.791 5.791 0 01-1.946-.363 3.481 3.481 0 01-2.005-1.992 5.907 5.907 0 01-.362-1.943c-.05-1.106-.062-1.418-.062-4.254 0-2.838 0-3.128.062-4.256.007-.67.13-1.335.362-1.964a3.48 3.48 0 012.005-1.994 5.85 5.85 0 011.946-.362c1.11-.05 1.42-.064 4.263-.064 2.842 0 3.133 0 4.26.064a5.78 5.78 0 011.948.362 3.489 3.489 0 011.997 1.994c.229.623.351 1.28.362 1.943.05 1.107.063 1.418.063 4.256 0 2.836 0 3.141-.05 4.254h-.013v-.001z" fill="#fff"/><defs><linearGradient id="paint0_linear_1_82" x1="41.538" y1="-20.769" x2="-3.115" y2="39.462" gradientUnits="userSpaceOnUse"><stop stop-color="#405DE6"/><stop offset=".198" stop-color="#5851DB"/><stop offset=".401" stop-color="#833AB4"/><stop offset=".599" stop-color="#C13584"/><stop offset=".807" stop-color="#E1306C"/><stop offset="1" stop-color="#FD1D1D"/></linearGradient></defs></svg>