<svg width="27" height="27" fill="none" xmlns="http://www.w3.org/2000/svg"><path d="M4.97 0h17.06a4.88 4.88 0 013.514 1.51A5.256 5.256 0 0127 5.157v16.686c0 1.368-.524 2.68-1.456 3.647A4.882 4.882 0 0122.03 27H4.971a4.881 4.881 0 01-3.515-1.51A5.256 5.256 0 010 21.843V5.157c0-1.368.524-2.68 1.456-3.647A4.881 4.881 0 014.97 0z" fill="#1FAEE9"/><path d="M20.726 9.375a5.904 5.904 0 01-.95.344c.35-.369.608-.82.75-1.316a.163.163 0 00.006-.099.158.158 0 00-.053-.082.149.149 0 00-.18-.006c-.46.28-.956.491-1.472.629h-.095a.354.354 0 01-.256-.098A2.97 2.97 0 0016.51 8c-.322.001-.641.05-.95.147a2.894 2.894 0 00-1.262.82 3.039 3.039 0 00-.703 1.36 3.369 3.369 0 00-.076 1.15v.089a.12.12 0 01-.085 0 7.733 7.733 0 01-3.033-.917 7.99 7.99 0 01-2.446-2.07.154.154 0 00-.055-.053.148.148 0 00-.2.054 3.227 3.227 0 00-.41 1.571c-.003.416.074.829.227 1.214.154.384.38.733.666 1.026a2.574 2.574 0 01-.683-.275.158.158 0 00-.213.058.171.171 0 00-.025.08h-.028a3.214 3.214 0 00.471 1.708A3.07 3.07 0 009 15.132h-.038a2.276 2.276 0 01-.513-.06.171.171 0 00-.18.134.183.183 0 000 .082c.172.547.486 1.034.908 1.408.422.375.936.621 1.485.714a5.369 5.369 0 01-3.115.982h-.313a.232.232 0 00-.143.05.246.246 0 00-.085.127.263.263 0 00.014.157.25.25 0 00.1.118 8.297 8.297 0 007.72.383 7.902 7.902 0 002.591-2.013 9.015 9.015 0 002.146-5.776v-.05a.587.587 0 01.19-.412 5.988 5.988 0 001.206-1.355.172.172 0 00-.01-.2.156.156 0 00-.189-.045h-.048z" fill="#fff"/></svg>