<svg width="27" height="27" fill="none" xmlns="http://www.w3.org/2000/svg"><rect width="27" height="27" rx="6" fill="#fff"/><path d="M13.513 21h-.021c-.065 0-6.573-.013-8.215-.468a2.612 2.612 0 01-1.173-.692 2.69 2.69 0 01-.677-1.197A28.925 28.925 0 013 13.493a29.09 29.09 0 01.437-5.156 2.77 2.77 0 01.682-1.202 2.68 2.68 0 011.17-.707C6.889 6 13.217 6 13.486 6h.022c.066 0 6.59.013 8.215.468.902.25 1.606.968 1.849 1.887.304 1.707.448 3.438.427 5.172a29.01 29.01 0 01-.439 5.15c-.12.452-.355.864-.68 1.195-.325.331-.73.57-1.173.692-1.595.432-7.924.436-8.193.436zm-2.098-10.713l-.005 6.423 5.468-3.211-5.463-3.212z" fill="#C50F0F"/></svg>