<svg width="40" height="40" fill="none" xmlns="http://www.w3.org/2000/svg"><path fill-rule="evenodd" clip-rule="evenodd" d="M12.442 1.777c1.955-.09 2.578-.11 7.558-.11s5.603.021 7.557.11c1.953.088 3.286.4 4.453.851a9.02 9.02 0 013.247 2.117A8.955 8.955 0 0137.37 7.99c.453 1.167.763 2.5.853 4.45.09 1.958.11 2.582.11 7.56 0 4.98-.021 5.603-.11 7.558-.088 1.95-.4 3.284-.853 4.45a8.993 8.993 0 01-2.113 3.249 8.989 8.989 0 01-3.247 2.113c-1.167.453-2.5.763-4.45.853-1.957.09-2.58.11-7.56.11-4.98 0-5.603-.021-7.558-.11-1.95-.088-3.284-.4-4.45-.853a8.996 8.996 0 01-3.249-2.113 8.986 8.986 0 01-2.115-3.247c-.451-1.167-.761-2.5-.851-4.45-.09-1.958-.11-2.582-.11-7.56 0-4.98.021-5.603.11-7.557.088-1.953.4-3.286.851-4.453a8.994 8.994 0 012.117-3.247A8.987 8.987 0 017.99 2.628c1.167-.451 2.5-.761 4.45-.851h.002zm14.966 3.3C25.475 4.988 24.895 4.97 20 4.97c-4.895 0-5.475.018-7.408.107-1.789.081-2.759.38-3.405.631-.855.334-1.467.729-2.109 1.37a5.687 5.687 0 00-1.37 2.109c-.251.646-.55 1.616-.631 3.405-.089 1.933-.107 2.513-.107 7.408 0 4.895.018 5.475.107 7.408.081 1.789.38 2.759.631 3.405a5.69 5.69 0 001.37 2.109 5.69 5.69 0 002.109 1.37c.646.251 1.616.55 3.405.631 1.933.089 2.511.107 7.408.107s5.475-.018 7.408-.107c1.789-.081 2.759-.38 3.405-.631.855-.334 1.467-.729 2.109-1.37a5.69 5.69 0 001.37-2.109c.251-.646.55-1.616.631-3.405.089-1.933.107-2.513.107-7.408 0-4.895-.018-5.475-.107-7.408-.081-1.789-.38-2.759-.631-3.405-.334-.855-.729-1.467-1.37-2.109a5.689 5.689 0 00-2.109-1.37c-.646-.251-1.616-.55-3.405-.631zm-9.75 20.575a6.115 6.115 0 006.667-9.977 6.117 6.117 0 10-6.667 9.977zm-4.321-12.315a9.424 9.424 0 1113.327 13.328 9.424 9.424 0 01-13.327-13.328zm18.176-1.357a2.23 2.23 0 00.047-3.197 2.229 2.229 0 10-.047 3.197z" fill="#fff"/></svg>