<svg width="32" height="33" fill="none" xmlns="http://www.w3.org/2000/svg"><circle cx="16" cy="16.5" r="16" fill="#fff" fill-opacity=".1"/><circle cx="28" cy="5" r="4" fill="#EB5757"/><path d="M14.5 17.32a.938.938 0 110 1.875.938.938 0 010-1.875zm0-7.315c1.547 0 2.78 1.269 2.78 2.925 0 .879-.322 1.362-1.091 1.977l-.415.322c-.37.291-.494.45-.52.672l-.016.234A.75.75 0 0113.75 16c0-.855.315-1.326 1.074-1.932l.417-.322c.432-.345.54-.513.54-.816 0-.837-.573-1.425-1.281-1.425-.741 0-1.289.549-1.28 1.417a.75.75 0 11-1.5.015c-.016-1.707 1.208-2.932 2.78-2.932zM7 14.5a7.5 7.5 0 114.329 6.8l-3.432.685a.75.75 0 01-.882-.882l.686-3.433A7.474 7.474 0 017 14.5zm7.5-6a6 6 0 00-5.346 8.727c.077.15.1.323.068.49l-.516 2.578 2.578-.516a.75.75 0 01.489.067 5.998 5.998 0 008.585-6.63A6 6 0 0014.5 8.5zm-1.71 14.838A7.47 7.47 0 0017.5 25a7.48 7.48 0 003.17-.7l3.433.685a.75.75 0 00.882-.882l-.686-3.432a7.48 7.48 0 00.701-3.17 7.47 7.47 0 00-1.662-4.71 9.044 9.044 0 01.01 3.364 6.02 6.02 0 01-.502 4.072.75.75 0 00-.067.49l.515 2.578-2.58-.516a.75.75 0 00-.487.067c-1.257.64-2.7.818-4.074.503a9.046 9.046 0 01-3.363-.01z" fill="#fff"/></svg>