<svg width="68" height="23" fill="none" xmlns="http://www.w3.org/2000/svg"><path fill-rule="evenodd" clip-rule="evenodd" d="M8.16 5.722L0 1.802.866 0l8.16 3.919a6.652 6.652 0 005.76 0l4.847-2.328a8.652 8.652 0 017.491 0l4.666 2.24c1.91.918 4.142.87 6.01-.127l3.486-1.86a8.652 8.652 0 017.819-.166l4.578 2.2a6.652 6.652 0 005.881-.06L67.098.009 68 1.794l-7.534 3.808a8.652 8.652 0 01-7.648.078l-4.58-2.199a6.652 6.652 0 00-6.01.128l-3.486 1.86a8.652 8.652 0 01-7.818.165l-4.666-2.24a6.652 6.652 0 00-5.76 0l-4.847 2.328a8.652 8.652 0 01-7.49 0zm0 7.714L0 9.516l.866-1.802 8.16 3.919a6.652 6.652 0 005.76 0l4.847-2.328a8.652 8.652 0 017.491 0l4.666 2.24c1.91.918 4.142.87 6.01-.127l3.486-1.86a8.652 8.652 0 017.819-.166l4.578 2.2a6.652 6.652 0 005.881-.06l7.534-3.81L68 9.509l-7.534 3.808a8.652 8.652 0 01-7.648.078l-4.58-2.199a6.652 6.652 0 00-6.01.128l-3.486 1.86a8.652 8.652 0 01-7.818.165l-4.666-2.24a6.652 6.652 0 00-5.76 0l-4.847 2.328a8.652 8.652 0 01-7.49 0zM0 17.23l8.16 3.92a8.651 8.651 0 007.491 0l4.849-2.33a6.652 6.652 0 015.76 0l4.665 2.24a8.651 8.651 0 007.818-.165l3.486-1.86a6.652 6.652 0 016.01-.127l4.58 2.199a8.652 8.652 0 007.648-.078L68 17.22l-.902-1.784-7.534 3.808a6.652 6.652 0 01-5.88.06l-4.58-2.2a8.652 8.652 0 00-7.818.167l-3.485 1.86a6.652 6.652 0 01-6.011.127l-4.666-2.24a8.651 8.651 0 00-7.49 0l-4.849 2.328a6.652 6.652 0 01-5.759 0l-8.16-3.92L0 17.23z" fill="url(#paint0_linear_1_1485)"/><defs><linearGradient id="paint0_linear_1_1485" x1="26.847" y1="25.924" x2="40.391" y2="-7.927" gradientUnits="userSpaceOnUse"><stop stop-color="#0958FA"/><stop offset="1" stop-color="#09FA32"/></linearGradient></defs></svg>